<?xml version="1.0" encoding="UTF-8" standalone="no"?>
<!DOCTYPE svg PUBLIC "-//W3C//DTD SVG 1.1//EN" "http://www.w3.org/Graphics/SVG/1.1/DTD/svg11.dtd">
<svg width="100%" height="100%" viewBox="0 0 683 683" version="1.1" xmlns="http://www.w3.org/2000/svg" xmlns:xlink="http://www.w3.org/1999/xlink" xml:space="preserve" xmlns:serif="http://www.serif.com/" style="fill-rule:evenodd;clip-rule:evenodd;stroke-linejoin:round;stroke-miterlimit:2;">
    <g transform="matrix(1.33333,0,0,1.33333,0,0)">
        <g id="Language_translator">
            <path d="M170.5,409.902L151.611,409.902C145.299,409.893 140.107,404.701 140.098,398.389L140.098,332C140.098,331.999 140.098,331.998 140.098,331.996C140.098,322.618 132.381,314.901 123.003,314.901C118.469,314.901 114.117,316.705 110.912,319.912L70.583,360.24C67.378,363.445 65.576,367.796 65.576,372.328C65.576,381.707 73.293,389.424 82.672,389.424C87.204,389.424 91.555,387.622 94.76,384.417L105.902,373.284L105.902,398.389C105.929,423.454 126.546,444.071 151.612,444.098L170.5,444.098C179.88,444.098 187.598,436.38 187.598,427C187.598,417.62 179.88,409.902 170.5,409.902Z" style="fill:rgb(92,100,117);fill-rule:nonzero;"/>
            <path d="M341.5,102.098L360.426,102.098C366.719,102.106 371.894,107.281 371.902,113.574L371.902,180C371.902,180.001 371.902,180.002 371.902,180.002C371.902,189.381 379.619,197.098 388.997,197.098C393.531,197.098 397.883,195.295 401.088,192.088L441.417,151.76C444.622,148.555 446.424,144.204 446.424,139.672C446.424,130.293 438.707,122.576 429.328,122.576C424.796,122.576 420.445,124.378 417.24,127.583L406.098,138.716L406.098,113.574C406.073,88.529 385.471,67.927 360.426,67.902L341.5,67.902C332.12,67.902 324.402,75.62 324.402,85C324.402,94.38 332.12,102.098 341.5,102.098Z" style="fill:rgb(92,100,117);fill-rule:nonzero;"/>
            <path d="M341.557,357.965C347.163,352.139 352.442,346.007 357.371,339.598L325.725,339.598C330.665,346.003 335.95,352.134 341.557,357.965Z" style="fill:rgb(92,100,117);fill-rule:nonzero;"/>
            <path d="M455.5,219.902L301.598,219.902L301.598,47C301.598,46.999 301.598,46.999 301.598,46.998C301.598,37.62 293.88,29.902 284.502,29.902C284.501,29.902 284.501,29.902 284.5,29.902L56.5,29.902C56.499,29.902 56.499,29.902 56.498,29.902C47.12,29.902 39.402,37.62 39.402,46.998C39.402,46.999 39.402,46.999 39.402,47L39.402,275C39.402,275.001 39.402,275.001 39.402,275.002C39.402,284.38 47.12,292.098 56.498,292.098C56.499,292.098 56.499,292.098 56.5,292.098L210.402,292.098L210.402,465C210.402,465.001 210.402,465.001 210.402,465.002C210.402,474.38 218.12,482.098 227.498,482.098C227.499,482.098 227.499,482.098 227.5,482.098L455.5,482.098C455.501,482.098 455.501,482.098 455.502,482.098C464.88,482.098 472.598,474.38 472.598,465.002C472.598,465.001 472.598,465.001 472.598,465L472.598,237C472.598,236.999 472.598,236.999 472.598,236.998C472.598,227.62 464.88,219.902 455.502,219.902C455.501,219.902 455.501,219.902 455.5,219.902ZM233.298,200.856L185.798,105.856C179.991,94.259 161.009,94.259 155.202,105.856L107.702,200.856C106.516,203.229 105.898,205.847 105.898,208.5C105.898,217.882 113.618,225.602 123,225.602C129.469,225.602 135.407,221.931 138.298,216.145L143.07,206.598L197.93,206.598L202.702,216.145C205.164,220.999 209.821,224.381 215.2,225.22C212.136,228.376 210.415,232.602 210.402,237L210.402,257.902L73.598,257.902L73.598,64.098L267.402,64.098L267.402,219.902L230.633,219.902C235.356,214.722 236.418,207.132 233.298,200.856ZM180.834,172.402L160.166,172.402L170.5,151.732L180.834,172.402ZM408,339.598L398.908,339.598C389.829,354.315 379.241,368.046 367.316,380.569C378.856,389.161 391.454,396.232 404.799,401.608C411.326,404.173 415.641,410.506 415.641,417.518C415.641,426.896 407.924,434.613 398.546,434.613C396.372,434.613 394.219,434.199 392.201,433.392C373.983,426.088 356.909,416.205 341.5,404.048C326.091,416.205 309.017,426.088 290.799,433.392C288.799,434.194 286.664,434.607 284.509,434.607C284.509,434.607 284.509,434.607 284.509,434.607C275.127,434.607 267.406,426.887 267.406,417.504C267.406,410.509 271.698,404.188 278.201,401.607C291.551,396.236 304.16,389.178 315.717,380.604C303.779,368.071 293.18,354.328 284.092,339.598L275,339.598C265.62,339.598 257.902,331.879 257.902,322.5C257.902,313.12 265.62,305.401 275,305.401L324.402,305.401L324.402,284.5C324.402,275.12 332.12,267.402 341.5,267.402C350.88,267.402 358.598,275.12 358.598,284.5L358.598,305.402L408,305.402C417.38,305.402 425.098,313.12 425.098,322.5C425.098,331.88 417.38,339.598 408,339.598Z" style="fill:rgb(92,100,117);fill-rule:nonzero;"/>
            <path d="M455.5,219.902L301.598,219.902L301.598,47C301.598,46.999 301.598,46.999 301.598,46.998C301.598,37.62 293.88,29.902 284.502,29.902C284.501,29.902 284.501,29.902 284.5,29.902L56.5,29.902C56.499,29.902 56.499,29.902 56.498,29.902C47.12,29.902 39.402,37.62 39.402,46.998C39.402,46.999 39.402,46.999 39.402,47L39.402,275C39.402,275.001 39.402,275.001 39.402,275.002C39.402,284.38 47.12,292.098 56.498,292.098C56.499,292.098 56.499,292.098 56.5,292.098L210.402,292.098L210.402,465C210.402,465.001 210.402,465.001 210.402,465.002C210.402,474.38 218.12,482.098 227.498,482.098C227.499,482.098 227.499,482.098 227.5,482.098L455.5,482.098C455.501,482.098 455.501,482.098 455.502,482.098C464.88,482.098 472.598,474.38 472.598,465.002C472.598,465.001 472.598,465.001 472.598,465L472.598,237C472.598,236.999 472.598,236.999 472.598,236.998C472.598,227.62 464.88,219.902 455.502,219.902C455.501,219.902 455.501,219.902 455.5,219.902ZM233.298,200.856L185.798,105.856C179.991,94.259 161.009,94.259 155.202,105.856L107.702,200.856C106.516,203.229 105.898,205.847 105.898,208.5C105.898,217.882 113.618,225.602 123,225.602C129.469,225.602 135.407,221.931 138.298,216.145L143.07,206.598L197.93,206.598L202.702,216.145C205.164,220.999 209.821,224.381 215.2,225.22C212.136,228.376 210.415,232.602 210.402,237L210.402,257.902L73.598,257.902L73.598,64.098L267.402,64.098L267.402,219.902L230.633,219.902C235.356,214.722 236.418,207.132 233.298,200.856ZM180.834,172.402L160.166,172.402L170.5,151.732L180.834,172.402ZM408,339.598L398.908,339.598C389.829,354.315 379.241,368.046 367.316,380.569C378.856,389.161 391.454,396.232 404.799,401.608C411.326,404.173 415.641,410.506 415.641,417.518C415.641,426.896 407.924,434.613 398.546,434.613C396.372,434.613 394.219,434.199 392.201,433.392C373.983,426.088 356.909,416.205 341.5,404.048C326.091,416.205 309.017,426.088 290.799,433.392C288.799,434.194 286.664,434.607 284.509,434.607C284.509,434.607 284.509,434.607 284.509,434.607C275.127,434.607 267.406,426.887 267.406,417.504C267.406,410.509 271.698,404.188 278.201,401.607C291.551,396.236 304.16,389.178 315.717,380.604C303.779,368.071 293.18,354.328 284.092,339.598L275,339.598C265.62,339.598 257.902,331.879 257.902,322.5C257.902,313.12 265.62,305.401 275,305.401L324.402,305.401L324.402,284.5C324.402,275.12 332.12,267.402 341.5,267.402C350.88,267.402 358.598,275.12 358.598,284.5L358.598,305.402L408,305.402C417.38,305.402 425.098,313.12 425.098,322.5C425.098,331.88 417.38,339.598 408,339.598Z" style="fill:none;fill-rule:nonzero;"/>
        </g>
    </g>
</svg>
